<svg xmlns="http://www.w3.org/2000/svg" xmlns:svg="http://www.w3.org/2000/svg" id="svg2" width="210mm" height="297mm" version="1.1" viewBox="0 0 744.094 1052.362"><metadata id="metadata7"/><g id="layer1"><path id="path3396" d="m 110.1607,12.2551 c -16.644063,0 -30.125,13.480937 -30.125,30.125 0,16.644062 13.480937,30.125 30.125,30.125 16.64406,0 30.125,-13.480938 30.125,-30.125 0,-16.644063 -13.48094,-30.125 -30.125,-30.125 z m -10.03125,15.0625 25.09375,15.0625 -24.84375,15.0625 z" style="fill:#000"/><path style="fill:#000;stroke:none" id="path3407" d="m 40,12.361328 a 30,30 0 0 0 -30,30 30,30 0 0 0 30,30 30,30 0 0 0 30,-30 30,30 0 0 0 -30,-30 z m -14.75,15 10,0 0,30 -10,0 0,-30 z m 20,0 10,0 0,30 -10,0 0,-30 z"/><path style="fill:#000;stroke:none" id="path3444" d="M 180 12.361328 A 30 30 0 0 0 150 42.361328 A 30 30 0 0 0 180 72.361328 A 30 30 0 0 0 210 42.361328 A 30 30 0 0 0 180 12.361328 z M 185 27.361328 L 200 42.361328 L 185 57.361328 L 185 47.361328 L 165 47.361328 L 165 37.361328 L 185 37.361328 L 185 27.361328 z"/><path id="path3468" d="m 250.00357,12.361328 a 30,30 0 0 1 30,30 30,30 0 0 1 -30,30 30,30 0 0 1 -30,-30 30,30 0 0 1 30,-30 z m -5,15 -15,15 15,15 0,-10 20,0 0,-10 -20,0 0,-10 z" style="fill:#000;stroke:none"/></g></svg>